<svg xmlns="http://www.w3.org/2000/svg" xmlns:xlink="http://www.w3.org/1999/xlink" xmlns:lucid="lucid" width="719.31" height="352.32"><g transform="translate(-452.34317222054915 -615.8419749483605)" lucid:page-tab-id="YzoaK5J8ajfm"><path d="M537.34 690.6c0 22.1-17.9 40-40 40s-40-17.9-40-40c0-22.08 17.9-40 40-40s40 17.92 40 40z" stroke="#000" stroke-width="10" fill="#fff"/><use xlink:href="#a" transform="matrix(1,0,0,1,462.34317222054915,655.6147275632097) translate(1.125 38.4625)"/><path d="M667.32 748.14c0 16.62-14.08 30.1-31.45 30.1-17.37 0-31.46-13.48-31.46-30.1 0-16.63 14.1-30.1 31.47-30.1 17.37 0 31.45 13.47 31.45 30.1zm-62.9 0h62.9m-31.45-30.1v60.2M770.15 657.34c0 22.1-17.9 40-40 40s-40-17.9-40-40 17.9-40 40-40 40 17.9 40 40z" stroke="#000" stroke-width="3" fill="#fff"/><use xlink:href="#b" transform="matrix(1,0,0,1,695.1519124062038,622.3419749483605) translate(-3.875 38.6)"/><path d="M641.6 867.16c0 22.1-22.75 40-50.8 40-28.06 0-50.8-17.9-50.8-40s22.74-40 50.8-40c28.05 0 50.8 17.9 50.8 40z" stroke="#000" stroke-width="10" fill="#fff"/><use xlink:href="#c" transform="matrix(1,0,0,1,545,832.1580250516396) translate(18.629999999999995 27.525)"/><use xlink:href="#d" transform="matrix(1,0,0,1,545,832.1580250516396) translate(25.555 49.125)"/><path d="M540.66 705.9l62.65 33.22" stroke="#224c72" stroke-width="2" fill="none"/><path d="M541.14 705.05l-.9 1.72-.77-.4.6-1.88zM604.43 738.6l-.47 1.96-1.13-.6.92-1.72z" stroke="#224c72" stroke-width=".05" fill="#224c72"/><path d="M660.32 725.54l38.32-39.78" stroke="#224c72" stroke-width="2" fill="none"/><path d="M661.04 726.2l-.75.77-.42-.5-1-.85.76-.77zM700 685.75l-.67.7-1.4-1.35.74-.77z" stroke="#224c72" stroke-width=".05" fill="#224c72"/><path d="M620.04 776.98l-17.4 48.7" stroke="#224c72" stroke-width="2" fill="none"/><path d="M620.26 775.98l1.02.43-.33.93-1.83-.66.4-1.14z" stroke="#224c72" stroke-width=".05" fill="#224c72"/><path d="M602.65 825.64l-.34.97" stroke="#224c72" stroke-width="2" fill="none"/><path d="M568.52 697.2a6 6 0 0 1 6-6h78.46a6 6 0 0 1 6 6v14.83a6 6 0 0 1-6 6h-78.46a6 6 0 0 1-6-6z" fill="none"/><use xlink:href="#e" transform="matrix(1,0,0,1,568.5177343093525,691.1980887292896) translate(-10.325000000000003 17.1)"/><path d="M1053.67 774.82c0 16.63-14.08 30.1-31.46 30.1-17.36 0-31.44-13.47-31.44-30.1 0-16.62 14.08-30.1 31.45-30.1 17.4 0 31.47 13.48 31.47 30.1zm-62.9 0h62.9m-31.46-30.1v60.2" stroke="#000" stroke-width="3" fill="#fff"/><path d="M669.82 748.22l318.44 26.52" stroke="#224c72" stroke-width="2" fill="none"/><path d="M669.93 747.25l-.16 1.94-1.02-.1.08-.96-.07-1zM989.33 773.85l-.08.97.08 1-1.18-.1.17-1.95z" stroke="#224c72" stroke-width=".05" fill="#224c72"/><path d="M1138.67 687.6c0 22.1-17.9 40-40 40s-40-17.9-40-40c0-22.08 17.9-40 40-40s40 17.92 40 40z" stroke="#000" stroke-width="10" fill="#fff"/><use xlink:href="#f" transform="matrix(1,0,0,1,1063.6735613337344,652.6147275632097) translate(5.599999999999998 38.4625)"/><path d="M1170.16 859.23c0 22.1-22.75 40-50.8 40-28.05 0-50.8-17.9-50.8-40s22.75-40 50.8-40c28.06 0 50.8 17.9 50.8 40z" stroke="#000" stroke-width="3" fill="#fff"/><use xlink:href="#g" transform="matrix(1,0,0,1,1073.5683022166738,824.226173415225) translate(20.604999999999997 27.525)"/><use xlink:href="#h" transform="matrix(1,0,0,1,1073.5683022166738,824.226173415225) translate(64.455 27.525)"/><use xlink:href="#i" transform="matrix(1,0,0,1,1073.5683022166738,824.226173415225) translate(25.555 49.125)"/><path d="M1047.34 796.65l36.04 31.3" stroke="#224c72" stroke-width="2" fill="none"/><path d="M1048 795.93l-1.28 1.48-.77-.67 1.28-1.47zM1084.93 828.02l-1.6 1.2-.6-.54 1.27-1.47z" stroke="#224c72" stroke-width=".05" fill="#224c72"/><path d="M1043.78 749.78l16.65-36.87" stroke="#224c72" stroke-width="2" fill="none"/><path d="M1044.68 750.16l-.54 1.2-1.54-1.34.3-.66zM1060.77 711.9l.73 1-.2.43-1.77-.8.7-1.58z" stroke="#224c72" stroke-width=".05" fill="#224c72"/><path d="M675.5 891.52a1 1 0 0 1-1-1v-91.1a1 1 0 0 0-1-1h-5.18a.38.38 0 0 1-.25-.67l12.87-11.6a1.1 1.1 0 0 1 1.5 0l12.87 11.6a.38.38 0 0 1-.25.67h-5.18a1 1 0 0 0-1 1v91.1a1 1 0 0 1-1 1z" stroke="#4881b3" stroke-width="3" fill="#f5fbff"/><path d="M679.86 913.16a6 6 0 0 1 6-6h361.8a6 6 0 0 1 6 6v41.95a6 6 0 0 1-6 6h-361.8a6 6 0 0 1-6-6z" fill="none"/><use xlink:href="#j" transform="matrix(1,0,0,1,679.8597279108033,907.1580250516396) translate(-12.40740740740739 21.333333333333336)"/><use xlink:href="#k" transform="matrix(1,0,0,1,679.8597279108033,907.1580250516396) translate(110.22222222222221 53.333333333333336)"/><path d="M535.73 720.65l54.5 21.17 6.5 3.32 4.14 2.45 2.85 1.92 2.08 1.6 1.57 1.38 1.2 1.2.97 1.08.76.97.6.9.5.82.42.78.33.75.26.7.22.7.16.67.1.66.05.3.18 3-.1 2.3-.33 2-.52 1.85-.78 1.96-1.36 2.52-13.67 22.08-4.1 10.17-.3 1.06-.23 1.12-.14 1.2-.04 1.23.07 1.3.18 1.3.3 1.32.44 1.3.53 1.26.64 1.2.7 1.1.8 1 .84.9.9.8.9.7.96.6 1 .5 1 .4 1.04.33 1.08.24 1.12.14 1.18.04 1.23-.06 1.32-.18 1.4-.32 1.55-.5 1.67-.7 1.86-.97 2.1-1.36 2.38-1.84 2.75-2.55 3.24-3.57 3.9-5.1 4.73-7.5 5.9-11.43 7.5-18.27 3.04-8.75.1-.28.12-.27.12-.27.13-.25.15-.27.16-.26.18-.26.2-.26.2-.27.24-.26.25-.27.28-.27.3-.28.36-.28.37-.3.43-.3.5-.3.53-.3.63-.32.72-.34.83-.33.98-.36 1.15-.35 1.38-.38 1.68-.38 2.07-.4 2.6-.36 3.37-.33 4.48-.24 6.23-.1 9.13.27 14.7 1.03 29 3.3 136.88 19.2 14.64 1.02 7.8.24 54.35.2 12.9-.63 8.74-.8 6.7-.9 5.52-.98 4.7-1.04 4.16-1.1 3.74-1.16 3.43-1.23 3.18-1.3 3-1.36 2.86-1.45 2.75-1.55 2.67-1.64 2.6-1.76 2.6-1.9 2.56-2.08 2.6-2.27 2.6-2.5 2.7-2.8 2.78-3.15 2.92-3.58 3.1-4.14 3.3-4.88 3.66-5.86 4.1-7.25 4.74-9.28 3.2-6.9" stroke="#635dff" stroke-width="8" stroke-linejoin="round" fill="none"/><path d="M537.26 716.98l-2.88 7.4-5.23-2.02 1.13-1.07 3.6-4.38.63-1zM1055.28 699.28l.67 2.54 2.1 5.18.56 1.02-.23.52-7.2-3.34 2.97-6.44z" stroke="#635dff" stroke-width=".05" fill="#635dff"/><path d="M920 723.9a6 6 0 0 1 6-6h78.46a6 6 0 0 1 6 6v14.82a6 6 0 0 1-6 6H926a6 6 0 0 1-6-6z" fill="none"/><g><use xlink:href="#l" transform="matrix(1,0,0,1,920,717.8856232183375) translate(-5.8500000000000085 17.1)"/></g><defs><path fill="#3a414a" d="M24 0v-248h52v208h133V0H24" id="m"/><path fill="#3a414a" d="M182-130c37 4 62 22 62 59C244 23 116-4 24 0v-248c84 5 203-23 205 63 0 31-19 50-47 55zM76-148c40-3 101 13 101-30 0-44-60-28-101-31v61zm0 110c48-3 116 14 116-37 0-48-69-32-116-35v72" id="n"/><path fill="#3a414a" d="M175 0L67-191c6 58 2 128 3 191H24v-248h59L193-55c-6-58-2-129-3-193h46V0h-61" id="o"/><path fill="#3a414a" d="M14-72v-43h91v43H14" id="p"/><path fill="#3a414a" d="M140-251c80 0 125 45 125 126 0 70-33 111-92 124 6 28 34 38 68 31l-1 36C177 83 129 55 120 2 51-6 15-50 15-125c0-81 44-126 125-126zm-1 214c52 0 73-35 73-88 0-50-21-86-72-86-52 0-73 35-73 86s22 88 72 88" id="q"/><g id="a"><use transform="matrix(0.05,0,0,0.05,0,0)" xlink:href="#m"/><use transform="matrix(0.05,0,0,0.05,10.950000000000001,0)" xlink:href="#n"/><use transform="matrix(0.05,0,0,0.05,23.900000000000002,0)" xlink:href="#o"/><use transform="matrix(0.05,0,0,0.05,36.85,0)" xlink:href="#m"/><use transform="matrix(0.05,0,0,0.05,47.800000000000004,0)" xlink:href="#p"/><use transform="matrix(0.05,0,0,0.05,53.75,0)" xlink:href="#q"/></g><path fill="#3a414a" d="M182-182c0 78-84 86-111 141h115V0H12c-6-101 99-100 120-180 1-22-12-31-33-32-23 0-32 14-35 34l-49-3c5-45 32-70 84-70 51 0 83 22 83 69" id="r"/><g id="b"><use transform="matrix(0.05,0,0,0.05,0,0)" xlink:href="#m"/><use transform="matrix(0.05,0,0,0.05,10.950000000000001,0)" xlink:href="#n"/><use transform="matrix(0.05,0,0,0.05,23.900000000000002,0)" xlink:href="#o"/><use transform="matrix(0.05,0,0,0.05,36.85,0)" xlink:href="#m"/><use transform="matrix(0.05,0,0,0.05,47.800000000000004,0)" xlink:href="#p"/><use transform="matrix(0.05,0,0,0.05,53.75,0)" xlink:href="#q"/><use transform="matrix(0.05,0,0,0.05,67.75,0)" xlink:href="#r"/></g><g id="c"><use transform="matrix(0.05,0,0,0.05,0,0)" xlink:href="#m"/><use transform="matrix(0.05,0,0,0.05,10.950000000000001,0)" xlink:href="#n"/><use transform="matrix(0.05,0,0,0.05,23.900000000000002,0)" xlink:href="#o"/><use transform="matrix(0.05,0,0,0.05,36.85,0)" xlink:href="#m"/><use transform="matrix(0.05,0,0,0.05,47.800000000000004,0)" xlink:href="#p"/></g><path fill="#3a414a" d="M169-182c-1-43-94-46-97-3 18 66 151 10 154 114 3 95-165 93-204 36-6-8-10-19-12-30l50-8c3 46 112 56 116 5-17-69-150-10-154-114-4-87 153-88 188-35 5 8 8 18 10 28" id="s"/><path fill="#3a414a" d="M230 0l2-204L168 0h-37L68-204 70 0H24v-248h70l56 185 57-185h69V0h-46" id="t"/><g id="d"><use transform="matrix(0.05,0,0,0.05,0,0)" xlink:href="#n"/><use transform="matrix(0.05,0,0,0.05,12.950000000000001,0)" xlink:href="#s"/><use transform="matrix(0.05,0,0,0.05,24.950000000000003,0)" xlink:href="#t"/></g><path fill="#3a414a" d="M6 0l48-248h52L66-40h133l-8 40H6" id="u"/><path fill="#3a414a" d="M240-76C239 26 104-5 6 0l48-248c79 4 193-21 193 58 0 38-25 53-57 60 29 5 49 21 50 54zm-45-106c0-40-58-24-96-27l-12 61c45-3 108 12 108-34zm-7 105c0-44-65-31-109-33L66-38c51-3 122 14 122-39" id="v"/><path fill="#3a414a" d="M155 0L90-199 52 0H6l48-248h62l66 201 38-201h46L218 0h-63" id="w"/><path fill="#3a414a" d="M10-72l8-43h92l-9 43H10" id="x"/><path fill="#3a414a" d="M178-136c88 48 22 151-73 140C49-3 12-15 4-64l51-9c1 50 111 53 115 3-16-63-132-20-133-112 0-93 190-91 199-10l-50 12c-4-41-93-50-97-4 7 38 59 32 89 48" id="y"/><path fill="#3a414a" d="M212 0h-52l-8-156L82 0H30L17-190h46l2 145 66-145h53l8 145 60-145h47" id="z"/><path fill="#3a414a" d="M50-224l7-37h49l-7 37H50zM6 0l37-190h49L55 0H6" id="A"/><path fill="#3a414a" d="M72-63c-8 23 5 39 32 30L98-1C54 14 12-6 23-64l18-93H15l7-33h28l24-45h31l-8 45h35l-6 33H90" id="B"/><path fill="#3a414a" d="M67-101c-8 29-7 73 27 71 23-2 32-16 39-37l48 9C170-19 141 4 91 4 36 4 7-28 12-86c6-75 61-124 140-103 26 7 40 29 43 59l-50 4c-1-20-9-34-29-34-35 0-41 29-49 59" id="C"/><path fill="#3a414a" d="M150-105c8-23 8-54-22-51-68 7-54 98-72 156H6l50-261h50L85-158c15-20 33-36 66-36 95 0 34 128 28 194h-49" id="D"/><g id="e"><use transform="matrix(0.05,0,0,0.05,0,0)" xlink:href="#u"/><use transform="matrix(0.05,0,0,0.05,10.950000000000001,0)" xlink:href="#v"/><use transform="matrix(0.05,0,0,0.05,23.900000000000002,0)" xlink:href="#w"/><use transform="matrix(0.05,0,0,0.05,36.85,0)" xlink:href="#u"/><use transform="matrix(0.05,0,0,0.05,47.800000000000004,0)" xlink:href="#x"/><use transform="matrix(0.05,0,0,0.05,53.75,0)" xlink:href="#y"/><use transform="matrix(0.05,0,0,0.05,65.75,0)" xlink:href="#z"/><use transform="matrix(0.05,0,0,0.05,79.75,0)" xlink:href="#A"/><use transform="matrix(0.05,0,0,0.05,84.75,0)" xlink:href="#B"/><use transform="matrix(0.05,0,0,0.05,90.7,0)" xlink:href="#C"/><use transform="matrix(0.05,0,0,0.05,100.7,0)" xlink:href="#D"/></g><path fill="#3a414a" d="M238-95c0 69-44 99-111 99C63 4 22-25 22-93v-155h51v151c-1 38 19 59 55 60 90 1 49-130 58-211h52v153" id="E"/><path fill="#3a414a" d="M67-125c0 53 21 87 73 88 37 1 54-22 65-47l45 17C233-25 199 4 140 4 58 4 20-42 15-125 8-235 124-281 211-232c18 10 29 29 36 50l-46 12c-8-25-30-41-62-41-52 0-71 34-72 86" id="F"/><g id="f"><use transform="matrix(0.05,0,0,0.05,0,0)" xlink:href="#E"/><use transform="matrix(0.05,0,0,0.05,12.950000000000001,0)" xlink:href="#F"/><use transform="matrix(0.05,0,0,0.05,25.900000000000002,0)" xlink:href="#n"/><use transform="matrix(0.05,0,0,0.05,38.85,0)" xlink:href="#p"/><use transform="matrix(0.05,0,0,0.05,44.800000000000004,0)" xlink:href="#q"/></g><g id="g"><use transform="matrix(0.05,0,0,0.05,0,0)" xlink:href="#E"/><use transform="matrix(0.05,0,0,0.05,12.950000000000001,0)" xlink:href="#F"/><use transform="matrix(0.05,0,0,0.05,25.900000000000002,0)" xlink:href="#n"/></g><use transform="matrix(0.05,0,0,0.05,0,0)" xlink:href="#p" id="h"/><g id="i"><use transform="matrix(0.05,0,0,0.05,0,0)" xlink:href="#n"/><use transform="matrix(0.05,0,0,0.05,12.950000000000001,0)" xlink:href="#s"/><use transform="matrix(0.05,0,0,0.05,24.950000000000003,0)" xlink:href="#t"/></g><path fill="#3a414a" d="M114-194c63-2 87 48 72 110H63c-3 28 1 55 31 54 21-1 32-13 37-29l44 13C160-14 137 4 91 4 41 4 11-22 11-73c0-71 33-119 103-121zm30 77c14-47-50-61-67-22-3 6-6 13-8 22h75" id="G"/><path fill="#3a414a" d="M151-194c95 0 34 128 28 194h-49l25-134c0-29-45-25-59-9C67-111 69-48 56 0H6l36-190h47l-4 32c15-20 33-36 66-36" id="H"/><path fill="#3a414a" d="M166-52c-4 17 5 29 24 23l-3 27c-30 11-74 1-67-34C105-15 91 4 56 4 23 4 3-15 2-49c0-64 63-67 128-67 10-22 3-53-29-45-13 3-22 10-25 24l-46-5c5-64 156-77 153 0-1 33-11 60-17 90zM97-88c-44-9-64 57-19 57 31 0 42-28 47-57H97" id="I"/><path fill="#3a414a" d="M45-171c29-32 103-29 114 14 2-11 5-23 8-33h47L176-2c-3 70-92 96-155 64C9 56 1 42-1 25l50-5c2 28 48 27 63 11 13-13 20-45 21-66-13 20-30 35-62 36-87 3-60-134-26-172zM94-35c41-3 55-43 55-86 0-24-12-39-35-39-43 0-51 48-51 90 0 22 9 37 31 35" id="J"/><path fill="#3a414a" d="M6 0l51-261h49L55 0H6" id="K"/><path fill="#3a414a" d="M255-194c90 0 29 129 24 194h-49l25-136c-7-39-53-14-60 9-12 38-18 85-28 127h-49l25-136c2-29-39-23-50-7C69-108 68-47 56 0H6l36-190h48c-1 10-6 24-4 32 12-20 27-36 57-36s46 15 50 41c14-21 29-41 62-41" id="L"/><path fill="#3a414a" d="M-21 44V30h207v14H-21" id="M"/><path fill="#3a414a" d="M156-122c2-23-7-37-28-37-47 0-58 44-58 89 0 24 12 40 36 40 43 0 47-49 50-92zM-8 75l50-265h48c0 10-3 24-3 30 22-50 127-45 121 29-6 73-21 135-92 135-29 0-46-14-55-35L41 75H-8" id="N"/><path fill="#3a414a" d="M13-52c0-97 37-163 91-209h50c-53 52-92 115-92 212 0 48 8 90 25 124H39C22 40 13-2 13-52" id="O"/><path fill="#3a414a" d="M23-63C-1-167 59-251 163-251c68 0 111 34 111 101 0 87-44 137-119 151 2 31 28 37 61 31l-8 34c-54 13-105-9-105-64-40-7-72-29-80-65zm197-70c4-46-15-77-59-77-65 0-88 46-91 108-2 41 22 65 60 65 60 0 84-40 90-96" id="P"/><path fill="#3a414a" d="M124-194c51 0 84 22 84 74C207-44 167 4 94 4 43 4 11-23 11-74c0-74 41-120 113-120zM99-30c46 0 58-42 58-86 0-27-11-44-37-44-44 0-55 40-57 84-1 27 10 45 36 46" id="Q"/><path fill="#3a414a" d="M132-28C118-9 101 4 69 4 30 4 10-23 10-62c0-70 24-129 92-132 31-1 47 14 56 35l19-102h49L179 0h-49zM62-69c0 22 7 39 29 39 45-2 54-45 57-90 2-27-10-40-33-40-44 0-53 48-53 91" id="R"/><path fill="#3a414a" d="M69-54C61-12 54 32 29 56H-4C11 41 25 23 31 0H8l10-54h51" id="S"/><g id="j"><use transform="matrix(0.07407407407407408,0,0,0.07407407407407408,0,0)" xlink:href="#G"/><use transform="matrix(0.07407407407407408,0,0,0.07407407407407408,14.814814814814817,0)" xlink:href="#H"/><use transform="matrix(0.07407407407407408,0,0,0.07407407407407408,31.03703703703704,0)" xlink:href="#B"/><use transform="matrix(0.07407407407407408,0,0,0.07407407407407408,39.85185185185187,0)" xlink:href="#I"/><use transform="matrix(0.07407407407407408,0,0,0.07407407407407408,54.666666666666686,0)" xlink:href="#H"/><use transform="matrix(0.07407407407407408,0,0,0.07407407407407408,70.8888888888889,0)" xlink:href="#J"/><use transform="matrix(0.07407407407407408,0,0,0.07407407407407408,87.11111111111113,0)" xlink:href="#K"/><use transform="matrix(0.07407407407407408,0,0,0.07407407407407408,94.51851851851853,0)" xlink:href="#G"/><use transform="matrix(0.07407407407407408,0,0,0.07407407407407408,109.33333333333334,0)" xlink:href="#L"/><use transform="matrix(0.07407407407407408,0,0,0.07407407407407408,133.03703703703704,0)" xlink:href="#G"/><use transform="matrix(0.07407407407407408,0,0,0.07407407407407408,147.85185185185185,0)" xlink:href="#H"/><use transform="matrix(0.07407407407407408,0,0,0.07407407407407408,164.07407407407408,0)" xlink:href="#B"/><use transform="matrix(0.07407407407407408,0,0,0.07407407407407408,172.88888888888889,0)" xlink:href="#M"/><use transform="matrix(0.07407407407407408,0,0,0.07407407407407408,187.7037037037037,0)" xlink:href="#N"/><use transform="matrix(0.07407407407407408,0,0,0.07407407407407408,203.92592592592592,0)" xlink:href="#I"/><use transform="matrix(0.07407407407407408,0,0,0.07407407407407408,218.74074074074073,0)" xlink:href="#B"/><use transform="matrix(0.07407407407407408,0,0,0.07407407407407408,227.55555555555554,0)" xlink:href="#D"/><use transform="matrix(0.07407407407407408,0,0,0.07407407407407408,243.77777777777777,0)" xlink:href="#O"/><use transform="matrix(0.07407407407407408,0,0,0.07407407407407408,252.59259259259258,0)" xlink:href="#P"/><use transform="matrix(0.07407407407407408,0,0,0.07407407407407408,273.3333333333333,0)" xlink:href="#w"/><use transform="matrix(0.07407407407407408,0,0,0.07407407407407408,292.5185185185185,0)" xlink:href="#Q"/><use transform="matrix(0.07407407407407408,0,0,0.07407407407407408,308.7407407407407,0)" xlink:href="#R"/><use transform="matrix(0.07407407407407408,0,0,0.07407407407407408,324.96296296296293,0)" xlink:href="#G"/><use transform="matrix(0.07407407407407408,0,0,0.07407407407407408,339.77777777777777,0)" xlink:href="#u"/><use transform="matrix(0.07407407407407408,0,0,0.07407407407407408,356,0)" xlink:href="#v"/><use transform="matrix(0.07407407407407408,0,0,0.07407407407407408,375.18518518518516,0)" xlink:href="#u"/><use transform="matrix(0.07407407407407408,0,0,0.07407407407407408,391.4074074074074,0)" xlink:href="#S"/></g><path fill="#3a414a" d="M76-105c-23 59 45 89 88 55 12-10 18-24 22-45l30-153h51C238-143 259 4 118 4 48 4 11-39 25-112l26-136h52" id="T"/><path fill="#3a414a" d="M161-211c-63 0-91 46-91 110 0 39 17 65 58 64 38-1 60-20 74-45l40 20C220-23 184 0 125 4 9 13-10-144 57-208c33-50 166-62 196-1 4 8 9 18 11 27l-48 12c-6-24-25-41-55-41" id="U"/><path fill="#3a414a" d="M109-139C109-39 71 27 18 75h-50C22 21 61-44 61-142c0-46-11-87-27-119h47c17 31 28 75 28 122" id="V"/><g id="k"><use transform="matrix(0.07407407407407408,0,0,0.07407407407407408,0,0)" xlink:href="#P"/><use transform="matrix(0.07407407407407408,0,0,0.07407407407407408,20.740740740740744,0)" xlink:href="#w"/><use transform="matrix(0.07407407407407408,0,0,0.07407407407407408,39.92592592592593,0)" xlink:href="#Q"/><use transform="matrix(0.07407407407407408,0,0,0.07407407407407408,56.14814814814815,0)" xlink:href="#R"/><use transform="matrix(0.07407407407407408,0,0,0.07407407407407408,72.37037037037038,0)" xlink:href="#G"/><use transform="matrix(0.07407407407407408,0,0,0.07407407407407408,87.18518518518519,0)" xlink:href="#T"/><use transform="matrix(0.07407407407407408,0,0,0.07407407407407408,106.37037037037038,0)" xlink:href="#U"/><use transform="matrix(0.07407407407407408,0,0,0.07407407407407408,125.55555555555557,0)" xlink:href="#v"/><use transform="matrix(0.07407407407407408,0,0,0.07407407407407408,144.74074074074076,0)" xlink:href="#V"/></g><g id="l"><use transform="matrix(0.05,0,0,0.05,0,0)" xlink:href="#T"/><use transform="matrix(0.05,0,0,0.05,12.950000000000001,0)" xlink:href="#U"/><use transform="matrix(0.05,0,0,0.05,25.900000000000002,0)" xlink:href="#v"/><use transform="matrix(0.05,0,0,0.05,38.85,0)" xlink:href="#x"/><use transform="matrix(0.05,0,0,0.05,44.800000000000004,0)" xlink:href="#y"/><use transform="matrix(0.05,0,0,0.05,56.800000000000004,0)" xlink:href="#z"/><use transform="matrix(0.05,0,0,0.05,70.80000000000001,0)" xlink:href="#A"/><use transform="matrix(0.05,0,0,0.05,75.80000000000001,0)" xlink:href="#B"/><use transform="matrix(0.05,0,0,0.05,81.75000000000001,0)" xlink:href="#C"/><use transform="matrix(0.05,0,0,0.05,91.75000000000001,0)" xlink:href="#D"/></g></defs></g></svg>